<svg id="visual" viewBox="0 0 960 540" width="960" height="540" xmlns="http://www.w3.org/2000/svg" xmlns:xlink="http://www.w3.org/1999/xlink" version="1.1"><rect x="0" y="0" width="960" height="540" fill="#0f1629"></rect><defs><linearGradient id="grad1_0" x1="43.8%" y1="0%" x2="100%" y2="100%"><stop offset="14.444444444444446%" stop-color="#0b3d8a" stop-opacity="1"></stop><stop offset="85.55555555555554%" stop-color="#0b3d8a" stop-opacity="1"></stop></linearGradient></defs><defs><linearGradient id="grad1_1" x1="43.8%" y1="0%" x2="100%" y2="100%"><stop offset="14.444444444444446%" stop-color="#0b3d8a" stop-opacity="1"></stop><stop offset="85.55555555555554%" stop-color="#0e3575" stop-opacity="1"></stop></linearGradient></defs><defs><linearGradient id="grad1_2" x1="43.8%" y1="0%" x2="100%" y2="100%"><stop offset="14.444444444444446%" stop-color="#102d61" stop-opacity="1"></stop><stop offset="85.55555555555554%" stop-color="#0e3575" stop-opacity="1"></stop></linearGradient></defs><defs><linearGradient id="grad1_3" x1="43.8%" y1="0%" x2="100%" y2="100%"><stop offset="14.444444444444446%" stop-color="#102d61" stop-opacity="1"></stop><stop offset="85.55555555555554%" stop-color="#11254e" stop-opacity="1"></stop></linearGradient></defs><defs><linearGradient id="grad1_4" x1="43.8%" y1="0%" x2="100%" y2="100%"><stop offset="14.444444444444446%" stop-color="#101e3b" stop-opacity="1"></stop><stop offset="85.55555555555554%" stop-color="#11254e" stop-opacity="1"></stop></linearGradient></defs><defs><linearGradient id="grad1_5" x1="43.8%" y1="0%" x2="100%" y2="100%"><stop offset="14.444444444444446%" stop-color="#101e3b" stop-opacity="1"></stop><stop offset="85.55555555555554%" stop-color="#0f1629" stop-opacity="1"></stop></linearGradient></defs><defs><linearGradient id="grad2_0" x1="0%" y1="0%" x2="56.3%" y2="100%"><stop offset="14.444444444444446%" stop-color="#0b3d8a" stop-opacity="1"></stop><stop offset="85.55555555555554%" stop-color="#0b3d8a" stop-opacity="1"></stop></linearGradient></defs><defs><linearGradient id="grad2_1" x1="0%" y1="0%" x2="56.3%" y2="100%"><stop offset="14.444444444444446%" stop-color="#0e3575" stop-opacity="1"></stop><stop offset="85.55555555555554%" stop-color="#0b3d8a" stop-opacity="1"></stop></linearGradient></defs><defs><linearGradient id="grad2_2" x1="0%" y1="0%" x2="56.3%" y2="100%"><stop offset="14.444444444444446%" stop-color="#0e3575" stop-opacity="1"></stop><stop offset="85.55555555555554%" stop-color="#102d61" stop-opacity="1"></stop></linearGradient></defs><defs><linearGradient id="grad2_3" x1="0%" y1="0%" x2="56.3%" y2="100%"><stop offset="14.444444444444446%" stop-color="#11254e" stop-opacity="1"></stop><stop offset="85.55555555555554%" stop-color="#102d61" stop-opacity="1"></stop></linearGradient></defs><defs><linearGradient id="grad2_4" x1="0%" y1="0%" x2="56.3%" y2="100%"><stop offset="14.444444444444446%" stop-color="#11254e" stop-opacity="1"></stop><stop offset="85.55555555555554%" stop-color="#101e3b" stop-opacity="1"></stop></linearGradient></defs><defs><linearGradient id="grad2_5" x1="0%" y1="0%" x2="56.3%" y2="100%"><stop offset="14.444444444444446%" stop-color="#0f1629" stop-opacity="1"></stop><stop offset="85.55555555555554%" stop-color="#101e3b" stop-opacity="1"></stop></linearGradient></defs><g transform="translate(960, 0)"><path d="M0 324C-24.4 309.9 -48.7 295.9 -78.2 291.7C-107.6 287.5 -142.1 293.2 -159.5 276.3C-176.9 259.3 -177.3 219.6 -200.1 200.1C-222.9 180.6 -268.2 181.2 -280.6 162C-293 142.8 -272.6 103.8 -274.3 73.5C-276.1 43.2 -300 21.6 -324 0L0 0Z" fill="#101a32"></path><path d="M0 270C-20.3 258.3 -40.6 246.6 -65.1 243.1C-89.7 239.6 -118.4 244.4 -132.9 230.2C-147.4 216.1 -147.7 183 -166.8 166.8C-185.8 150.5 -223.5 151 -233.8 135C-244.2 119 -227.1 86.5 -228.6 61.3C-230.1 36 -250 18 -270 0L0 0Z" fill="#112144"></path><path d="M0 216C-16.2 206.6 -32.5 197.3 -52.1 194.5C-71.7 191.7 -94.7 195.5 -106.3 184.2C-118 172.9 -118.2 146.4 -133.4 133.4C-148.6 120.4 -178.8 120.8 -187.1 108C-195.3 95.2 -181.7 69.2 -182.9 49C-184.1 28.8 -200 14.4 -216 0L0 0Z" fill="#102957"></path><path d="M0 162C-12.2 155 -24.4 147.9 -39.1 145.9C-53.8 143.8 -71 146.6 -79.7 138.1C-88.5 129.6 -88.6 109.8 -100.1 100.1C-111.5 90.3 -134.1 90.6 -140.3 81C-146.5 71.4 -136.3 51.9 -137.2 36.8C-138 21.6 -150 10.8 -162 0L0 0Z" fill="#0f316b"></path><path d="M0 108C-8.1 103.3 -16.2 98.6 -26.1 97.2C-35.9 95.8 -47.4 97.7 -53.2 92.1C-59 86.4 -59.1 73.2 -66.7 66.7C-74.3 60.2 -89.4 60.4 -93.5 54C-97.7 47.6 -90.9 34.6 -91.4 24.5C-92 14.4 -100 7.2 -108 0L0 0Z" fill="#0c3980"></path><path d="M0 54C-4.1 51.7 -8.1 49.3 -13 48.6C-17.9 47.9 -23.7 48.9 -26.6 46C-29.5 43.2 -29.5 36.6 -33.4 33.4C-37.2 30.1 -44.7 30.2 -46.8 27C-48.8 23.8 -45.4 17.3 -45.7 12.3C-46 7.2 -50 3.6 -54 0L0 0Z" fill="#0b3d8a"></path></g><g transform="translate(0, 540)"><path d="M0 -324C25.8 -312.7 51.5 -301.5 79.2 -295.6C106.9 -289.7 136.4 -289.2 160.5 -278C184.6 -266.8 203.3 -244.9 224.9 -224.9C246.4 -204.9 270.9 -186.8 280.6 -162C290.2 -137.2 285 -105.8 289.8 -77.6C294.5 -49.5 309.3 -24.8 324 0L0 0Z" fill="#101a32"></path><path d="M0 -270C21.5 -260.6 43 -251.2 66 -246.3C89 -241.4 113.7 -241 133.7 -231.7C153.8 -222.3 169.4 -204.1 187.4 -187.4C205.4 -170.7 225.8 -155.6 233.8 -135C241.9 -114.4 237.5 -88.1 241.5 -64.7C245.4 -41.3 257.7 -20.6 270 0L0 0Z" fill="#112144"></path><path d="M0 -216C17.2 -208.5 34.4 -201 52.8 -197C71.2 -193.1 90.9 -192.8 107 -185.3C123.1 -177.9 135.5 -163.2 149.9 -149.9C164.3 -136.6 180.6 -124.5 187.1 -108C193.5 -91.5 190 -70.5 193.2 -51.8C196.4 -33 206.2 -16.5 216 0L0 0Z" fill="#102957"></path><path d="M0 -162C12.9 -156.4 25.8 -150.7 39.6 -147.8C53.4 -144.8 68.2 -144.6 80.2 -139C92.3 -133.4 101.6 -122.4 112.4 -112.4C123.2 -102.4 135.5 -93.4 140.3 -81C145.1 -68.6 142.5 -52.9 144.9 -38.8C147.3 -24.8 154.6 -12.4 162 0L0 0Z" fill="#0f316b"></path><path d="M0 -108C8.6 -104.2 17.2 -100.5 26.4 -98.5C35.6 -96.6 45.5 -96.4 53.5 -92.7C61.5 -88.9 67.8 -81.6 75 -75C82.1 -68.3 90.3 -62.3 93.5 -54C96.7 -45.7 95 -35.3 96.6 -25.9C98.2 -16.5 103.1 -8.3 108 0L0 0Z" fill="#0c3980"></path><path d="M0 -54C4.3 -52.1 8.6 -50.2 13.2 -49.3C17.8 -48.3 22.7 -48.2 26.7 -46.3C30.8 -44.5 33.9 -40.8 37.5 -37.5C41.1 -34.1 45.2 -31.1 46.8 -27C48.4 -22.9 47.5 -17.6 48.3 -12.9C49.1 -8.3 51.5 -4.1 54 0L0 0Z" fill="#0b3d8a"></path></g></svg>